<?xml version="1.0" encoding="UTF-8"?>
<svg id="outlined" xmlns="http://www.w3.org/2000/svg" viewBox="0 0 180 120">
  <defs>
    <style>
      .cls-1 {
        fill: #dedef9;
      }

      .cls-2 {
        fill: #242424;
      }

      .cls-3 {
        fill: #5c5ce0;
      }
    </style>
  </defs>
  <g>
    <g>
      <circle class="cls-3" cx="31.887" cy="54.166" r="4.021"/>
      <circle class="cls-3" cx="43.95" cy="54.166" r="4.021"/>
      <circle class="cls-3" cx="56.013" cy="54.166" r="4.021"/>
    </g>
    <path class="cls-2" d="m110.229,72.198c-.828,0-1.5.671-1.5,1.5v27.108c0,6.713-5.461,12.174-12.173,12.174h-63.059c-6.713,0-12.174-5.461-12.174-12.174v-32.568h59.389c.828,0,1.5-.671,1.5-1.5s-.672-1.5-1.5-1.5H21.324v-9.613c0-6.713,5.461-12.174,12.174-12.174h32.083c.828,0,1.5-.671,1.5-1.5s-.672-1.5-1.5-1.5h-32.083c-8.367,0-15.174,6.807-15.174,15.174v45.182c0,8.367,6.807,15.174,15.174,15.174h63.059c8.366,0,15.173-6.807,15.173-15.174v-27.108c0-.829-.672-1.5-1.5-1.5Z"/>
  </g>
  <rect class="cls-1" x="27.52" y="76.187" width="33.101" height="27.751" rx="5.671" ry="5.671"/>
  <path class="cls-3" d="m51.5,85.943h-.872v-3.317c0-.744-.603-1.347-1.347-1.347h-2.326c-.744,0-1.347.603-1.347,1.347v3.317h-3.077v-3.317c0-.744-.603-1.347-1.347-1.347h-2.326c-.744,0-1.347.603-1.347,1.347v3.317h-.951c-.553,0-1.058.208-1.441.549-.427.381-.646.945-.64,1.518l.079,7.856c.01,1.044.794,1.957,1.835,2.036.055.004.11.006.167.006h14.942c1.195,0,2.165-.969,2.165-2.164v-7.636c0-1.195-.969-2.164-2.165-2.164Z"/>
  <path class="cls-2" d="m93.478,87.199h-27.992c-.828,0-1.5-.671-1.5-1.5s.672-1.5,1.5-1.5h27.992c.828,0,1.5.671,1.5,1.5s-.672,1.5-1.5,1.5Z"/>
  <path class="cls-2" d="m85.197,94.644h-19.712c-.828,0-1.5-.671-1.5-1.5s.672-1.5,1.5-1.5h19.712c.828,0,1.5.671,1.5,1.5s-.672,1.5-1.5,1.5Z"/>
  <g id="Post_Sent_for_Publishing" data-name="Post Sent for Publishing">
    <g>
      <path class="cls-1" d="m145.867,24.355c1.821-9.047-5.528-18.786-15.984-18.834-12.035-.056-16.751,9.45-17.806,13.386-11.973-3.25-21.151,6.63-18.515,15.329l36.323-12.236c1.651-.556,3.162,1.141,2.418,2.717h0s-2.144,4.539-2.144,4.539c-.051.22-11.084,23.466-11.084,23.466h13.254s-1.296-.649-1.296-.649c-.175-.098-.288-.28-.298-.48.011-.201.123-.382.298-.48l3.243-1.624c.344-.172.622-.451.794-.795l1.621-3.249c.048-.081.116-.148.196-.196.098-.058.206-.082.312-.077.18.009.353.106.452.273l1.622,3.249c.171.344.45.623.793.794l3.243,1.625c.174.099.286.28.297.48h0c-.011.201-.122.382-.297.482l-1.294.648h4.819c4.822,0,13.341-3.105,13.341-13.594,0-8.033-5.31-13.893-14.308-14.772Z"/>
      <path class="cls-2" d="m130.428,21.606c-.015,0-.03,0-.045,0-.062,0-.125.002-.187.007-.232.017-.456.066-.666.143l-54.02,18.198c-1.465.494-2.479,1.755-2.646,3.292-.167,1.537.552,2.987,1.877,3.784l13.451,8.091v9.92c0,1.028.622,1.926,1.586,2.286.283.106.575.158.863.158.69,0,1.358-.296,1.837-.847l5.068-5.89,10.532,6.336c.611.367,1.309.561,2.019.561,1.51,0,2.902-.882,3.547-2.247l18.954-40.128c.183-.347.287-.743.287-1.163,0-1.368-1.096-2.479-2.458-2.5Zm-54.12,20.716l49.917-16.816-37.503,26.426c-.144.102-.257.234-.346.381l-12.347-7.427c-1.038-.624-.869-2.177.279-2.564Zm14.384,22.557v-8.256l4.681,2.816-4.681,5.44Zm20.692-.55c-.245.518-.757.814-1.287.814-.248,0-.501-.065-.731-.204l-18.675-11.234v-.103l38.609-27.205-17.917,37.932Z"/>
      <path class="cls-3" d="m83.01,27.495c-.699,0-1.372-.392-1.696-1.062l-1.909-3.824c-.081-.162-.216-.297-.38-.378l-3.832-1.921c-.635-.355-1.004-.949-1.04-1.617-.003-.044-.003-.089,0-.134.035-.667.404-1.262.986-1.59l3.886-1.947c.163-.082.298-.217.38-.381l1.915-3.838c.199-.347.431-.58.708-.746.327-.193.695-.284,1.068-.267.646.034,1.223.382,1.55.931l1.96,3.921c.082.163.216.297.378.378l3.833,1.92c.02.01.039.02.059.031.578.329.945.922.98,1.587.003.044.003.089,0,.134-.035.667-.403,1.262-.982,1.59l-3.888,1.948c-.163.082-.299.217-.38.38l-1.915,3.836c-.173.364-.485.677-.87.862-.262.126-.538.186-.811.186Zm-.556-2.164c-.004.007-.007.013-.01.02l.01-.02Zm1.097-.013l.006.013s-.004-.009-.006-.013Zm-6.141-6.692l2.735,1.37c.642.322,1.173.854,1.495,1.496l1.364,2.734,1.364-2.733c.322-.644.854-1.176,1.496-1.498l2.735-1.369-2.735-1.37c-.643-.321-1.174-.853-1.496-1.497l-1.366-2.737-1.362,2.736c-.322.645-.854,1.177-1.496,1.499l-2.734,1.369Z"/>
      <path class="cls-3" d="m137.176,59.29c-.663,0-1.302-.371-1.608-1.007l-1.615-3.233c-.052-.103-.132-.184-.233-.234l-3.245-1.626c-.603-.337-.952-.899-.986-1.531-.003-.044-.003-.089,0-.134.034-.633.384-1.196.938-1.504l3.292-1.65c.102-.051.185-.134.234-.234l1.622-3.25c.198-.341.418-.56.679-.714.307-.181.658-.265,1.011-.25.604.031,1.15.36,1.461.88l1.668,3.333c.051.102.134.185.233.234l3.244,1.625c.02.01.038.02.058.03.547.311.895.872.928,1.5.003.045.003.089,0,.134-.033.629-.38,1.19-.926,1.501l-3.303,1.655c-.102.051-.183.132-.233.233l-1.622,3.25c-.168.348-.463.642-.824.816-.249.12-.512.176-.771.176Zm-.641-2.111c-.003.005-.006.01-.008.015l.008-.015Zm1.268-.014l.008.016c-.002-.005-.005-.01-.008-.016Zm-4.938-5.573l1.973.987c.581.291,1.062.772,1.352,1.355l.982,1.968.983-1.969c.288-.58.769-1.062,1.351-1.354l1.973-.987-1.972-.987c-.582-.291-1.062-.772-1.353-1.355l-.983-1.971-.982,1.972c-.289.582-.771,1.063-1.354,1.355l-1.97.986Z"/>
    </g>
  </g>
</svg>