<?xml version="1.0" encoding="UTF-8"?>
<svg id="Outline" xmlns="http://www.w3.org/2000/svg" viewBox="0 0 150 150">
  <defs>
    <style>
      .cls-1 {
        fill: #5c5ce0;
      }

      .cls-2 {
        fill: #dedef9;
      }

      .cls-3 {
        fill: #5c5cde;
      }

      .cls-4 {
        fill: #242424;
      }
    </style>
  </defs>
  <path class="cls-2" d="M135.38,23.23l-5.62-2.81c-.59-.3-1.08-.78-1.37-1.38l-2.81-5.63c-.17-.29-.47-.46-.78-.47-.18,0-.37.03-.54.13-.14.08-.26.2-.34.34l-2.81,5.63c-.3.6-.78,1.08-1.37,1.38l-5.62,2.81c-.3.17-.5.48-.52.83.02.35.21.66.52.83l5.62,2.82c.59.3,1.08.78,1.37,1.38l2.81,5.63c.22.46.77.65,1.23.43.19-.09.34-.24.43-.43l2.81-5.63c.3-.6.78-1.08,1.37-1.38l5.62-2.81c.3-.17.5-.49.51-.83h0c-.02-.35-.21-.66-.51-.83Z"/>
  <path class="cls-2" d="M14.53,126.11l4.68,2.35c.5.25.9.65,1.14,1.15l2.34,4.69c.18.38.64.54,1.03.36.16-.08.28-.2.36-.36l2.34-4.69c.25-.5.65-.9,1.15-1.15l4.68-2.34c.25-.14.41-.4.43-.69h0c-.02-.29-.18-.55-.43-.69l-4.68-2.35c-.5-.25-.9-.65-1.14-1.15l-2.34-4.69c-.23-.38-.72-.51-1.1-.28-.12.07-.21.17-.28.28l-2.34,4.69c-.25.5-.65.9-1.15,1.15l-4.68,2.34c-.25.14-.42.4-.43.69.02.29.18.55.43.69Z"/>
  <g>
    <path class="cls-3" d="M61.97,87.75c-.38,0-.77-.15-1.06-.44l-11.06-11.06c-.59-.59-.59-1.54,0-2.12l11.91-11.91c.59-.59,1.54-.59,2.12,0,.59.59.59,1.54,0,2.12l-10.85,10.85,10,10c.59.59.59,1.54,0,2.12-.29.29-.68.44-1.06.44Z"/>
    <path class="cls-3" d="M85.32,87.75c-.38,0-.77-.15-1.06-.44-.59-.59-.59-1.54,0-2.12l10.85-10.85-10-10c-.59-.59-.59-1.54,0-2.12.59-.59,1.54-.59,2.12,0l11.06,11.06c.59.59.59,1.54,0,2.12l-11.91,11.91c-.29.29-.68.44-1.06.44Z"/>
    <path class="cls-3" d="M69.46,92.25c-.14,0-.28-.02-.42-.06-.8-.23-1.25-1.06-1.03-1.86l9.23-31.98c.23-.79,1.06-1.26,1.86-1.03.8.23,1.25,1.06,1.03,1.86l-9.23,31.98c-.19.66-.79,1.08-1.44,1.08Z"/>
  </g>
  <g>
    <g>
      <path class="cls-2" d="M132.36,98.38l-5.83-39.09c-1.2-8.05-6.84-14.3-14.06-16.72,2.38,3.56,3.78,7.84,3.78,12.43v39.53c0,3.21-.68,6.26-1.9,9.02l11.58,13.22c4.86-4.54,7.49-11.31,6.43-18.38Z"/>
      <path class="cls-2" d="M54.31,116.94c-.09,0-.18,0-.26,0,4,7.7,12.55,12.39,21.62,11.04l23.93-3.57v-8.22c-1.84.49-3.77.75-5.76.75h-39.53Z"/>
    </g>
    <path class="cls-4" d="M112.47,42.57c-4.02-6.01-10.88-9.98-18.64-9.98h-39.53c-12.36,0-22.42,10.06-22.42,22.42v39.53c0,12.27,9.91,22.27,22.15,22.41.09,0,39.79,0,39.79,0,1.99,0,3.92-.26,5.76-.75v-3.12c-1.82.57-3.76.87-5.76.87h-39.53c-10.71,0-19.42-8.71-19.42-19.42v-39.53c0-10.71,8.71-19.42,19.42-19.42h39.53c10.71,0,19.42,8.71,19.42,19.42v39.53c0,2.27-.41,4.44-1.13,6.47l1.13,1.29,1.1,1.26c1.22-2.76,1.9-5.81,1.9-9.02v-39.53c0-4.6-1.39-8.87-3.78-12.43Z"/>
  </g>
  <path class="cls-1" d="M101.74,137.07c-.36,0-.73-.06-1.09-.18-1.53-.5-2.55-1.98-2.55-3.67v-34.94c0-2.65,1.5-4.94,3.83-5.82,2.16-.82,4.48-.23,6.07,1.55l22.42,25.6c1.1,1.24,1.3,3.07.49,4.56-.75,1.37-2.19,2.1-3.67,1.86l-12.5-1.98c-.93-.15-1.85.26-2.47,1.09l-7.69,10.44c-.7.96-1.75,1.48-2.84,1.48ZM103.89,95.1c-.38,0-.7.09-.89.17-.88.33-1.9,1.33-1.9,3.02v34.94c0,.48.25.74.49.82.22.07.41,0,.58-.23l7.69-10.44c1.27-1.73,3.32-2.6,5.35-2.28l12.5,1.98c.24.03.43-.08.57-.34.16-.29.23-.76-.1-1.13l-22.42-25.6c-.63-.71-1.31-.9-1.86-.9Z"/>
</svg>