<?xml version="1.0" encoding="UTF-8"?>
<svg id="outlined" xmlns="http://www.w3.org/2000/svg" viewBox="0 0 180 120">
  <defs>
    <style>
      .cls-1 {
        fill: #fff;
      }

      .cls-2 {
        fill: #dbdbf6;
      }

      .cls-3 {
        fill: #242424;
      }

      .cls-4 {
        fill: #5c5ce0;
      }

      .cls-5 {
        fill: none;
        stroke: #242424;
        stroke-linecap: round;
        stroke-linejoin: round;
        stroke-width: 3px;
      }
    </style>
  </defs>
  <path class="cls-5" d="m81.413,85.303c0-3.099-2.512-5.611-5.611-5.611s-5.61,2.512-5.61,5.611c0,2.076,1.13,3.883,2.805,4.854v6.759c0,.816.662,1.478,1.478,1.478h2.654c.816,0,1.478-.662,1.478-1.478v-6.759c1.675-.97,2.805-2.778,2.805-4.854Z"/>
  <g>
    <path class="cls-2" d="m121.492,22.198c.142-.693.216-1.398.223-2.106.036-7.762-6.162-13.729-14.202-14.119-10.524-.511-14.65,8.141-15.573,11.531-9.971-1.97-16.593,3.882-16.113,12.748.464-.031.924-.069,1.408-.069,10.95,0,16.74,7.99,17.387,16.454h7.758c-.176-.176-.285-.411-.299-.666.019-.35.215-.667.521-.838l5.661-2.835c.6-.301,1.086-.788,1.386-1.388l2.829-5.672c.083-.141.202-.258.342-.342.171-.101.36-.144.545-.134.315.016.616.186.788.476l2.832,5.672c.299.601.786,1.087,1.385,1.387l5.662,2.836c.304.173.499.489.518.838h0c-.01.177-.064.345-.154.49,4.547-.746,9.61-4.023,9.61-11.538,0-6.921-6.979-11.906-12.513-12.726Z"/>
    <g>
      <g id="lock_s" data-name="lock s">
        <g id="lock_s-2" data-name="lock s">
          <path class="cls-3" d="m59.824,61.995c-.828,0-1.5-.671-1.5-1.5v-12.324c0-5.397,2.34-10.523,6.42-14.062,4.077-3.537,9.507-5.127,14.92-4.354,7.872,1.122,14.134,7.368,15.581,15.543.145.816-.399,1.594-1.215,1.739-.813.147-1.595-.399-1.738-1.215-1.222-6.896-6.466-12.158-13.052-13.097-4.607-.656-9.06.639-12.53,3.65-3.423,2.97-5.386,7.27-5.386,11.797v12.324c0,.829-.672,1.5-1.5,1.5Z"/>
        </g>
      </g>
      <path class="cls-3" d="m99.851,115.548h-47.681c-4.231,0-7.675-3.443-7.675-7.674v-40.191c0-4.231,3.443-7.674,7.675-7.674h47.681c4.231,0,7.675,3.443,7.675,7.674v40.191c0,4.231-3.443,7.674-7.675,7.674Zm-47.681-52.54c-2.578,0-4.675,2.097-4.675,4.674v40.191c0,2.578,2.097,4.674,4.675,4.674h47.681c2.578,0,4.675-2.097,4.675-4.674v-40.191c0-2.578-2.097-4.674-4.675-4.674h-47.681Z"/>
    </g>
    <path class="cls-4" d="m113.319,58.481c-.242,0-.485-.041-.722-.124-.549-.192-.991-.587-1.243-1.111l-2.823-5.654c-.178-.355-.471-.649-.826-.827l-5.663-2.838c-.733-.411-1.165-1.105-1.209-1.885-.003-.046-.003-.093,0-.14.044-.78.476-1.475,1.157-1.857l5.714-2.863c.354-.178.649-.473.827-.829l2.829-5.671c.227-.392.493-.661.813-.854.39-.23.829-.336,1.254-.313.75.04,1.422.447,1.802,1.089l2.874,5.749c.178.357.471.65.825.828l5.662,2.836c.02.009.038.02.056.03.678.383,1.107,1.077,1.151,1.856.003.046.003.093,0,.139-.043.779-.473,1.474-1.148,1.858l-5.719,2.864c-.356.179-.649.472-.826.827l-2.83,5.671c-.21.431-.57.79-1.01,1.002-.3.145-.622.217-.945.217Zm-.284-2.33s0,.002-.002.004l.002-.004Zm.561-.011l.003.005s-.002-.003-.003-.005Zm-9.876-10.167l5.105,2.557c.834.418,1.524,1.109,1.942,1.944l2.551,5.109,2.549-5.108c.416-.835,1.106-1.527,1.944-1.946l5.104-2.555-5.105-2.558c-.837-.418-1.527-1.11-1.944-1.948l-2.552-5.11-2.547,5.111c-.418.837-1.108,1.528-1.943,1.947l-5.104,2.556Z"/>
    <g>
      <path class="cls-1" d="m130.062,66.219l-3.751-1.879c-.397-.199-.719-.521-.917-.919l-1.876-3.757c-.114-.193-.314-.305-.522-.316-.122-.006-.248.022-.361.089-.093.056-.172.133-.227.227l-1.874,3.757c-.198.397-.52.72-.918.919l-3.75,1.878c-.203.114-.333.323-.345.555.012.231.142.441.345.555l3.751,1.88c.397.199.719.521.917.918l1.876,3.756c.148.306.515.435.822.288.126-.061.227-.162.288-.288l1.874-3.756c.198-.397.52-.72.918-.919l3.75-1.877c.202-.115.331-.325.343-.557h0c-.012-.232-.142-.442-.343-.556Z"/>
      <path class="cls-4" d="m122.968,75.482c-.693,0-1.361-.388-1.684-1.054l-1.869-3.742c-.078-.157-.202-.281-.357-.358l-3.753-1.88c-.63-.353-.996-.942-1.032-1.604-.003-.045-.003-.091,0-.137.036-.662.402-1.252.979-1.577l3.805-1.906c.155-.078.279-.203.358-.36l1.875-3.757c.199-.346.428-.576.701-.74.33-.195.693-.285,1.069-.266.636.033,1.208.379,1.532.927l1.919,3.836c.077.155.205.283.359.36l3.75,1.878c.021.01.04.021.06.032.573.327.937.915.973,1.573.003.045.003.091,0,.137-.036.659-.399,1.248-.973,1.575l-3.81,1.909c-.154.078-.282.205-.359.359l-1.874,3.756c-.179.368-.488.675-.865.856-.259.125-.533.185-.805.185Zm-.567-2.156s-.003.006-.004.009l.004-.009Zm1.12-.014l.007.013s-.004-.009-.007-.013Zm-5.974-6.537l2.63,1.316c.633.317,1.157.842,1.475,1.477l1.312,2.628,1.312-2.628c.316-.635.841-1.16,1.476-1.478l2.63-1.316-2.63-1.317c-.636-.318-1.16-.844-1.477-1.479l-1.312-2.629-1.311,2.63c-.316.636-.841,1.161-1.475,1.479l-2.63,1.316Z"/>
    </g>
  </g>
</svg>