<?xml version="1.0" encoding="UTF-8"?>
<svg id="outlined" xmlns="http://www.w3.org/2000/svg" viewBox="0 0 180 120">
  <defs>
    <style>
      .cls-1 {
        fill: #dedef9;
      }

      .cls-2 {
        fill: #242424;
      }

      .cls-3 {
        fill: #5c5ce0;
      }
    </style>
  </defs>
  <path class="cls-1" d="m51.963,52.41c1.386-4.988,5.974-8.472,11.156-8.472h2.926v-13.946c0-4.287,3.487-7.774,7.774-7.774h6.145c.007-.136.017-.272.019-.408.044-9.419-7.478-16.66-17.234-17.134-12.771-.62-17.778,9.879-18.898,13.994-12.497-2.469-20.687,5.175-19.495,16.528-.202-.014-.404-.052-.63-.052-5.455,0-9.379,4.665-9.379,9.582,0,3.877,2.603,9.29,10.211,9.295h27.974c-.494-.357-.742-.992-.57-1.614Z"/>
  <path class="cls-2" d="m54.591,89.993c-1.589,0-3.203-.231-4.8-.717-4.221-1.285-7.689-4.136-9.766-8.028-2.076-3.893-2.513-8.362-1.228-12.583,1.284-4.221,4.135-7.689,8.027-9.766,3.892-2.076,8.361-2.514,12.582-1.228.793.241,1.239,1.079.998,1.872-.241.793-1.084,1.238-1.871.999-3.456-1.052-7.111-.694-10.297,1.005-3.186,1.7-5.519,4.538-6.57,7.992-1.051,3.455-.694,7.111,1.006,10.297,1.699,3.186,4.537,5.519,7.991,6.57,3.454,1.049,7.11.693,10.297-1.005,3.187-1.7,5.52-4.538,6.571-7.992.536-1.762.707-3.575.51-5.391-.09-.823.506-1.563,1.329-1.653.81-.082,1.563.505,1.653,1.329.241,2.221.032,4.438-.623,6.589-2.165,7.116-8.729,11.71-15.811,11.71Z"/>
  <path class="cls-3" d="m53.753,79.161c-.397,0-.779-.158-1.061-.439l-5.858-5.858c-.586-.585-.586-1.536,0-2.121.586-.586,1.535-.586,2.121,0l4.798,4.798,16.515-16.515c.586-.586,1.535-.586,2.121,0,.586.585.586,1.535,0,2.121l-17.575,17.576c-.281.281-.663.439-1.061.439Z"/>
  <rect class="cls-1" x="107.475" y="87.165" width="58.178" height="28.185" rx="14.092" ry="14.092"/>
  <circle class="cls-3" cx="151.16" cy="101.257" r="10.659"/>
  <g>
    <path class="cls-2" d="m100.329,99.65h-37.21c-3.456,0-6.559-2.057-7.905-5.24-.322-.763-1.201-1.12-1.966-.797-.764.323-1.12,1.203-.798,1.966,1.817,4.295,6.005,7.071,10.669,7.071h37.21c.828,0,1.5-.671,1.5-1.5s-.672-1.5-1.5-1.5Z"/>
    <path class="cls-2" d="m132.691,43.938h-2.559v-13.946c0-4.287-3.487-7.774-7.774-7.774h-10.831c-4.287,0-7.774,3.487-7.774,7.774v13.946h-11.328v-13.946c0-4.287-3.487-7.774-7.774-7.774h-10.831c-4.287,0-7.774,3.487-7.774,7.774v13.946h-2.926c-5.183,0-9.771,3.483-11.156,8.472-.222.798.245,1.625,1.044,1.847.794.22,1.625-.246,1.847-1.044,1.026-3.694,4.426-6.274,8.266-6.274h69.572c4.73,0,8.578,3.848,8.578,8.579v25.876c0,.829.672,1.5,1.5,1.5s1.5-.671,1.5-1.5v-25.876c0-6.384-5.194-11.579-11.578-11.579Zm-25.938-13.946c0-2.632,2.142-4.774,4.774-4.774h10.831c2.633,0,4.774,2.142,4.774,4.774v13.946h-20.38v-13.946Zm-37.708,0c0-2.632,2.142-4.774,4.774-4.774h10.831c2.633,0,4.774,2.142,4.774,4.774v13.946h-20.38v-13.946Z"/>
  </g>
</svg>