<?xml version="1.0" encoding="UTF-8"?>
<svg id="outlined" xmlns="http://www.w3.org/2000/svg" viewBox="0 0 180 120">
  <defs>
    <style>
      .cls-1 {
        fill: #dedef9;
      }

      .cls-2 {
        fill: #242424;
      }

      .cls-3 {
        fill: #5c5ce0;
      }
    </style>
  </defs>
  <g>
    <path class="cls-3" d="m103.835,91.11c-.586-.586-1.535-.586-2.121,0l-7.984,7.985v-30.652c0-.829-.672-1.5-1.5-1.5s-1.5.671-1.5,1.5v30.652l-7.985-7.985c-.586-.586-1.535-.586-2.121,0-.586.585-.586,1.536,0,2.121l10.546,10.546c.281.281.663.439,1.061.439s.779-.158,1.061-.439l10.545-10.546c.586-.586.586-1.536,0-2.121Z"/>
    <path class="cls-2" d="m105.411,117.399h-26.364c-6.643,0-12.046-5.404-12.046-12.046v-15.818c0-.829.672-1.5,1.5-1.5s1.5.671,1.5,1.5v15.818c0,4.988,4.058,9.046,9.046,9.046h26.364c4.988,0,9.046-4.058,9.046-9.046v-15.818c0-.829.672-1.5,1.5-1.5s1.5.671,1.5,1.5v15.818c0,6.642-5.403,12.046-12.046,12.046Z"/>
  </g>
  <g id="cloud">
    <g id="cloud-2" data-name="cloud">
      <path class="cls-1" d="m109.392,63.906h12.242c7.221,0,17.15-4.459,17.15-17.218,0-10.173-10.259-17.501-18.393-18.706.208-1.019.318-2.056.328-3.095.054-11.409-9.058-20.18-20.875-20.754-15.469-.751-21.534,11.967-22.891,16.95-15.137-2.99-25.058,6.268-23.613,20.02-.245-.017-.489-.063-.764-.063-6.607,0-11.36,5.651-11.36,11.607,0,4.696,3.153,11.253,12.368,11.259h55.807Z"/>
    </g>
  </g>
  <path class="cls-3" d="m102.207,51.75c-.433,0-.862-.187-1.159-.547-.526-.64-.435-1.585.205-2.111l8.89-7.316-8.89-7.316c-.64-.526-.731-1.472-.205-2.111.526-.639,1.472-.732,2.111-.205l10.297,8.474c.347.285.547.71.547,1.158s-.2.873-.547,1.158l-10.297,8.475c-.279.23-.617.342-.952.342Z"/>
  <path class="cls-3" d="m81.88,51.75c-.335,0-.673-.112-.952-.342l-10.297-8.475c-.347-.285-.547-.71-.547-1.158s.2-.873.547-1.158l10.297-8.474c.64-.527,1.584-.434,2.111.205.526.64.435,1.585-.205,2.111l-8.89,7.316,8.89,7.316c.64.526.731,1.472.205,2.111-.297.36-.727.547-1.159.547Z"/>
  <path class="cls-3" d="m88.142,55.583c-.131,0-.264-.017-.396-.053-.799-.218-1.271-1.042-1.053-1.841l6.659-24.45c.218-.8,1.046-1.271,1.842-1.053.799.218,1.271,1.042,1.053,1.841l-6.659,24.45c-.182.667-.786,1.106-1.446,1.106Z"/>
</svg>