<?xml version="1.0" encoding="UTF-8"?>
<svg id="b" data-name="outlined" xmlns="http://www.w3.org/2000/svg" width="140" height="140" viewBox="0 0 140 140">
  <g id="c" data-name="Creative Pro">
    <g>
      <path d="m25.49093,27.63651c-.20546-1.00408-.31336-2.04369-.31336-3.10851v-.00003c0-8.51851,6.90562-15.42413,15.42413-15.42413h.00003c8.51851,0,15.42413,6.90562,15.42413,15.42413v.00003c0,6.54272-4.07373,12.13398-9.82311,14.37568-1.73621.67695-3.62523,1.04845-5.60102,1.04845h-.00003c-7.45369,0-13.67252-5.28711-15.11076-12.31562" fill="#dbdbf6" stroke-width="0"/>
      <path d="m40.6019,33.13591c-.82812,0-1.5-.67139-1.5-1.5v-7.3916c0-.82861.67188-1.5,1.5-1.5s1.5.67139,1.5,1.5v7.3916c0,.82861-.67188,1.5-1.5,1.5Z" fill="#5c5cdd" stroke-width="0"/>
      <circle cx="40.60171" cy="18.68687" r="2.37049" fill="#5c5cdd" stroke-width="0"/>
    </g>
    <path d="m92.05698,92.25016c-.56641,0-1.1416-.16211-1.66406-.49463-1.27344-.81006-1.74805-2.34033-1.1543-3.72119l4.44434-10.36328-5.73926-2.41895c-1.23145-.51953-2.1416-1.60156-2.43262-2.89453-.29395-1.30029.04883-2.61914.94043-3.61816l14.94043-16.77197c1.0166-1.14307,2.63379-1.3667,3.92871-.54248,1.27441.80957,1.75,2.33984,1.15625,3.72119l-4.44629,10.36328,5.73926,2.41895c1.23047.51904,2.13867,1.59912,2.43164,2.89014.29395,1.30029-.04688,2.62012-.93652,3.62061,0,.00049-.00098.00049-.00098.00098l-14.94043,16.77295c-.60742.68262-1.42773,1.03711-2.2666,1.03711Zm11.5957-38.31592h-.00098l-14.96094,16.80078c-.32715.3667-.29883.76025-.25391.9624.08105.35596.32617.64404.67285.79004l7.12988,3.00537c.36816.15527.65918.45068.80859.82129s.14453.78516-.0127,1.15234l-5.04004,11.75146c-.00879.00098.04102.02832.06641.02832h.00098l14.96094-16.80127c.3252-.36719.29688-.76172.25098-.96387-.08008-.35498-.32422-.64209-.6709-.78809l-7.12988-3.00537c-.36816-.15527-.65918-.45068-.80859-.82129s-.14453-.78516.0127-1.15234l5.04199-11.75146c.00879-.00049-.04199-.02832-.06738-.02832Zm4.49121,19.5083h.00977-.00977Z" fill="#5c5cdd" stroke-width="0"/>
    <g>
      <path d="m76.87681,36.30058c-.99341-2.4837-3.35303-3.97394-6.08496-3.97394-2.60791,0-5.0918,1.61438-6.08521,3.97394l-8.32056,19.86975c-1.11768,2.73212.86938,5.71259,3.72559,5.71259h9.31396c2.23535,0,4.09814-1.86279,4.09814-4.09814s-1.86279-4.09814-4.09814-4.09814h-1.61426c-.62109,0-1.11768-.62091-.86938-1.24188l2.98047-7.07861c.37256-.74512,1.36597-.74512,1.73853,0l5.96094,13.90887c.86938,1.86279,2.35962,2.4837,3.84985,2.4837,2.98047,0,4.96729-2.98047,3.72559-5.71252l-8.32056-19.74561Z" fill="#242424" stroke-width="0"/>
      <path d="m86.35679,17.09049h-24.69336c-.82812,0-1.5.67139-1.5,1.5s.67188,1.5,1.5,1.5h24.69336c6.36621,0,11.5459,5.17969,11.5459,11.5459v14.76562c0,.82861.67188,1.5,1.5,1.5s1.5-.67139,1.5-1.5v-14.76562c0-8.02051-6.52539-14.5459-14.5459-14.5459Z" fill="#242424" stroke-width="0"/>
      <path d="m43.68101,74.05729c.33594,0,.6748-.11279.9541-.34375.63867-.52783.72852-1.47314.20117-2.11182-1.70312-2.06055-2.64062-4.6709-2.64062-7.3501v-18.40088c0-.82861-.67188-1.5-1.5-1.5s-1.5.67139-1.5,1.5v18.40088c0,3.375,1.18164,6.66406,3.32812,9.26123.29688.35889.72559.54443,1.15723.54443Z" fill="#242424" stroke-width="0"/>
      <path d="m81.3187,75.79801h-5.60547c-.82812,0-1.5.67139-1.5,1.5s.67188,1.5,1.5,1.5h5.60547c.82812,0,1.5-.67139,1.5-1.5s-.67188-1.5-1.5-1.5Z" fill="#242424" stroke-width="0"/>
      <path d="m66.79331,67.10466c-.06445.04004-.125.08447-.18262.13379-1.32031,1.13379-5.49121,4.60156-9.66504,7.91113-1.40576,1.25763-2.75513,2.57465-4.05811,3.93518-1.16162-1.26233-2.86768-1.89209-4.56592-1.67786-.58447.05658-1.29785.43323-2.13281,1.11328-.27637-.27094-1.64038-1.40411-4.53418-.73535-1.17578.27106-2.46777,1.36353-3.89014,3.00659-.13867-.13257-.30469-.24121-.49463-.3147-1.19727-.46338-2.51465-.4624-3.71191,0-.06543.02539-.12891.05518-.19043.08936-4.29883,2.40137-7.66895,6.03125-9.74609,10.49658-.0166.0376-.0332.0752-.04688.11377-2.75195,7.46289-6.24805,14.68994-10.39258,21.48047-.43164.70703-.20801,1.62988.49902,2.06152.24414.14893.51367.21973.78027.21973.50488,0,.99902-.25537,1.28125-.71875,4.23438-6.93848,7.80957-14.32178,10.625-21.9458,1.79395-3.8291,4.68262-6.94873,8.36035-9.03076.36865-.12512.76025-.14386,1.13818-.06177-1.00928,1.35956-2.07788,2.91046-3.21143,4.5813l-.66895.98242c-.46777.68359-.29199,1.61719.3916,2.08496.25879.17725.55371.26221.8457.26221.47852,0,.94824-.22852,1.23926-.65283l.6748-.99268c1.55762-2.29541,5.69336-8.39307,7.19141-8.73877.92432-.211,1.44824-.1153,1.6875-.03577-1.61304,1.82513-3.52417,4.40198-5.73242,7.74084-.45703.69141-.26758,1.62158.42383,2.07861.25488.16846.54199.24902.82617.24902.48633,0,.96387-.23633,1.25195-.67236,2.82812-4.27588,6.61816-9.13525,7.83691-9.67578l.0498-.00586c.75684-.09717,1.51367.1792,2.02441.74512.05322.05878.12378.08698.18359.13531-2.28149,2.58325-4.38721,5.32074-6.28516,8.20258-.45508.69189-.26367,1.62207.42773,2.07812.69141.45557,1.62305.26465,2.07812-.42773,3.33691-5.06738,7.32227-9.68848,11.77637-13.67676,3.86133-3.05859,7.79004-6.31445,9.38281-7.66797.08398.0835.18945.22607.27051.43213.125.31885.26758.9873-.14648,1.81885-.76855,1.36719-3.39453,4.14209-5.71191,6.59033-2.17676,2.30029-4.05762,4.28662-4.72852,5.38135-1.94043,2.77002-3.58594,5.75537-4.89062,8.87305-.02148.05225-.04102.10547-.05664.15967-.53223,1.82678-.94043,3.70404-1.22778,5.58246-.3103.49347-.31616,1.14435.03735,1.65338.47168.68115,1.41016.8501,2.08691.37744,1.19629-.8291,2.32617-1.771,3.36133-2.80127.625-.625,1.48438-1.70996,2.48047-2.96582,1.30469-1.64697,3.49023-4.4043,4.31738-4.81885.74609-.37305,1.53711-.50293,2.06543-.50293.00977,0,.01953,0,.02832.00049-.58691,2.04883-2.80176,7.26562-4.08789,9.67822-1.3457,2.52344-9.07031,13.27002-13.98047,15.88916-4.03027,2.33203-8.25488,4.41748-12.55859,6.19824-1.41113.44141-2.69824,1.23535-3.70703,2.28174l-4.73242,4.73291c-.58594.58594-.58594,1.53564,0,2.12109.29297.29297.67676.43945,1.06055.43945s.76758-.14648,1.06055-.43945l4.75098-4.75195c.69141-.71582,1.55957-1.24658,2.51074-1.53516.04688-.01416.09277-.03076.1377-.04932,4.44922-1.8374,8.81543-3.99072,12.93457-6.37549,5.73535-3.05811,13.8418-14.60742,15.16992-17.09961.05469-.10107,5.28418-10.4126,4.45312-12.48535-.16895-.42432-.55762-1.00098-1.44141-1.3374-1.30762-.49756-3.36523-.26953-5.00684.55273-1.32422.66309-2.96875,2.66309-5.32617,5.63818-.70581.89105-1.37451,1.73169-1.87378,2.2984.1145-.45404.2146-.91235.34448-1.3609,1.21582-2.8916,2.74609-5.66162,4.5957-8.30566.55762-.90527,2.51172-2.96973,4.40137-4.96631,2.55566-2.70068,5.19824-5.49268,6.18262-7.24707,1.22559-2.45117.45703-4.77441-.77539-5.89502-1.02637-.93408-2.38574-1.10547-3.46484-.43213Z" fill="#242424" stroke-width="0"/>
    </g>
  </g>
</svg>