<svg width="180" height="120" viewBox="0 0 180 120" fill="none" xmlns="http://www.w3.org/2000/svg">
<path d="M79.3423 23.4865H79.3423C77.4887 23.4865 75.9861 24.989 75.9861 26.8426V26.8426C75.9861 28.6961 77.4887 30.1987 79.3423 30.1987H79.3423C81.1958 30.1987 82.6984 28.6961 82.6984 26.8426V26.8426C82.6984 24.989 81.1958 23.4865 79.3423 23.4865Z" fill="#242424"/>
<path d="M89.4108 23.4865H89.4108C87.5572 23.4865 86.0546 24.989 86.0546 26.8426V26.8426C86.0546 28.6961 87.5572 30.1987 89.4108 30.1987H89.4108C91.2643 30.1987 92.7669 28.6961 92.7669 26.8426V26.8426C92.7669 24.989 91.2643 23.4865 89.4108 23.4865Z" fill="#242424"/>
<path d="M99.4792 23.4865H99.4792C97.6256 23.4865 96.123 24.989 96.123 26.8426V26.8426C96.123 28.6961 97.6256 30.1987 99.4792 30.1987H99.4792C101.333 30.1987 102.835 28.6961 102.835 26.8426V26.8426C102.835 24.989 101.333 23.4865 99.4792 23.4865Z" fill="#242424"/>
<path d="M86.7676 73.0227C88.0107 72.5486 89.3233 72.6814 90.4194 73.343C90.4502 73.134 90.4874 72.926 90.5117 72.7161C90.6045 71.9172 90.6524 71.0979 90.6524 70.2795C90.6524 58.7449 81.2686 49.3611 69.7334 49.3611C58.1992 49.3611 48.8154 58.7449 48.8154 70.2795C48.8154 81.8142 58.1992 91.1985 69.7334 91.1985C75.0053 91.1985 80.0092 89.21 83.8223 85.7344V77.4778C83.8223 75.4534 84.9785 73.7043 86.7676 73.0227Z" fill="#DEDEF9"/>
<path d="M116.26 15.2742H82.6982C74.4687 15.2742 67.7734 21.9695 67.7734 30.199V45.4958C67.7734 46.3245 68.4453 46.9958 69.2734 46.9958C70.1016 46.9958 70.7734 46.3245 70.7734 45.4958V41.7673H128.185V63.76C128.185 70.3352 122.835 75.6848 116.26 75.6848H99.8613C99.0332 75.6848 98.3613 76.3567 98.3613 77.1848C98.3613 78.0129 99.0332 78.6848 99.8613 78.6848H116.26C124.489 78.6848 131.185 71.9895 131.185 63.76V30.199C131.185 21.9695 124.489 15.2742 116.26 15.2742ZM128.185 38.7673H70.7734V30.199C70.7734 23.6238 76.123 18.2742 82.6982 18.2742H116.26C122.835 18.2742 128.185 23.6238 128.185 30.199L128.185 38.7673Z" fill="#242424"/>
<path d="M91.4717 74.219C91.1555 73.8641 90.8 73.5728 90.4194 73.343C89.3232 72.6814 88.0107 72.5486 86.7676 73.0227C84.9785 73.7043 83.8223 75.4534 83.8223 77.4778V101.607C83.8223 102.976 84.6592 104.17 85.9033 104.579C86.2021 104.678 86.5049 104.726 86.8037 104.726C87.7021 104.726 88.5615 104.294 89.1377 103.513L94.4443 96.302C94.7637 95.8704 95.2422 95.6575 95.7012 95.7307L104.338 97.1008C105.566 97.2971 106.741 96.6956 107.353 95.5764C108.007 94.3782 107.845 92.8987 106.958 91.9026L91.4717 74.219ZM104.726 94.1252L96.1709 92.7678C94.5967 92.5198 93.0117 93.1907 92.0293 94.5227L86.8223 101.594V77.4778C86.8223 76.5452 87.3457 76.0129 87.8359 75.8264C87.9492 75.7834 88.1045 75.7424 88.2822 75.7424C88.5635 75.7424 88.9023 75.845 89.2226 76.2053L89.6426 76.6848L104.709 93.8889C104.777 93.9651 104.752 94.0666 104.726 94.1252Z" fill="#242424"/>
<path d="M79.3423 30.1987C81.1959 30.1987 82.6985 28.696 82.6985 26.8426C82.6985 24.9892 81.1959 23.4865 79.3423 23.4865C77.4888 23.4865 75.9861 24.9891 75.9861 26.8426C75.9861 28.696 77.4887 30.1987 79.3423 30.1987Z" fill="#5C5CE0"/>
<path d="M89.4108 30.1987C91.2643 30.1987 92.7669 28.6961 92.7669 26.8426C92.7669 24.989 91.2643 23.4865 89.4108 23.4865C87.5572 23.4865 86.0546 24.989 86.0546 26.8426C86.0546 28.6961 87.5572 30.1987 89.4108 30.1987Z" fill="#5C5CE0"/>
<path d="M99.4792 30.1987C101.333 30.1987 102.835 28.6961 102.835 26.8426C102.835 24.989 101.333 23.4865 99.4792 23.4865C97.6256 23.4865 96.123 24.989 96.123 26.8426C96.123 28.6961 97.6256 30.1987 99.4792 30.1987Z" fill="#5C5CE0"/>
<path d="M63.0508 63.4758L56.9121 69.6155C56.4238 70.1038 56.4238 70.8948 56.9121 71.3831L62.6123 77.0833C62.8564 77.3274 63.1758 77.4495 63.4961 77.4495C63.8164 77.4495 64.1357 77.3274 64.3799 77.0833C64.8682 76.595 64.8682 75.804 64.3799 75.3157L59.5635 70.4993L64.8184 65.2434C65.3066 64.7551 65.3066 63.9641 64.8184 63.4758C64.3301 62.9875 63.5391 62.9875 63.0508 63.4758Z" fill="#5C5CE0"/>
<path d="M76.8545 63.4758C76.3662 62.9875 75.5752 62.9875 75.0869 63.4758C74.5986 63.9641 74.5986 64.7551 75.0869 65.2434L79.9043 70.0608L74.6484 75.3157C74.1602 75.8039 74.1602 76.595 74.6484 77.0833C74.8926 77.3274 75.2119 77.4495 75.5322 77.4495C75.8525 77.4495 76.1719 77.3274 76.416 77.0833L82.5557 70.9446C82.79 70.7102 82.9219 70.3928 82.9219 70.0608C82.9219 69.7297 82.79 69.4114 82.5557 69.177L76.8545 63.4758Z" fill="#5C5CE0"/>
<path d="M72.458 60.8352C71.7969 60.6472 71.1025 61.0266 70.9101 61.6897L66.1543 78.176C65.9629 78.8391 66.3457 79.5325 67.0088 79.7239C67.125 79.7571 67.2412 79.7727 67.3564 79.7727C67.8984 79.7727 68.3984 79.4163 68.5566 78.8694L73.3125 62.3831C73.5039 61.72 73.1211 61.0266 72.458 60.8352Z" fill="#5C5CE0"/>
</svg>
