<svg width="140" height="140" viewBox="0 0 140 140" fill="none" xmlns="http://www.w3.org/2000/svg">
<path d="M40.798 107.238C39.969 107.238 39.298 106.566 39.298 105.738V103.474C39.298 102.646 39.969 101.974 40.798 101.974C41.627 101.974 42.298 102.646 42.298 103.474V105.738C42.298 106.566 41.627 107.238 40.798 107.238Z" fill="#242424"/>
<path d="M40.798 117.001C39.969 117.001 39.298 116.329 39.298 115.501V113.236C39.298 112.408 39.969 111.736 40.798 111.736C41.627 111.736 42.298 112.408 42.298 113.236V115.501C42.298 116.329 41.627 117.001 40.798 117.001Z" fill="#242424"/>
<path d="M37.049 110.987H34.785C33.956 110.987 33.285 110.315 33.285 109.487C33.285 108.659 33.956 107.987 34.785 107.987H37.049C37.878 107.987 38.549 108.659 38.549 109.487C38.549 110.315 37.878 110.987 37.049 110.987Z" fill="#242424"/>
<path d="M46.811 110.987H44.547C43.718 110.987 43.047 110.315 43.047 109.487C43.047 108.659 43.718 107.987 44.547 107.987H46.811C47.64 107.987 48.311 108.659 48.311 109.487C48.311 110.315 47.64 110.987 46.811 110.987Z" fill="#242424"/>
<path d="M72.663 110.859V96.953C69.753 99.319 68.305 102.575 67.834 104.303C58.755 102.509 52.804 108.063 53.671 116.311C53.524 116.301 53.377 116.273 53.213 116.273C49.25 116.273 46.399 119.662 46.399 123.235C46.399 126.052 48.29 129.984 53.818 129.988H94.634C98.965 129.988 104.921 127.314 104.921 119.661C104.921 119.277 104.889 118.903 104.842 118.533H80.338C76.107 118.533 72.663 115.091 72.663 110.859Z" fill="#DEDEF9"/>
<path d="M67.773 54.204H67.417V48.641C67.417 46.232 65.457 44.272 63.048 44.272H58.095C55.686 44.272 53.726 46.232 53.726 48.641V54.204H50.174V48.641C50.174 46.232 48.214 44.272 45.805 44.272H40.852C38.443 44.272 36.483 46.232 36.483 48.641V54.204H35.959C34.456 54.204 33.012 54.755 31.893 55.755C30.691 56.827 30.012 58.419 30.029 60.121L30.197 76.848C30.228 79.885 32.553 82.439 35.492 82.663C35.646 82.675 35.802 82.681 35.959 82.681H67.773C71.141 82.681 73.881 79.941 73.881 76.573V60.314C73.881 56.945 71.141 54.205 67.773 54.205V54.204ZM56.726 48.641C56.726 47.886 57.34 47.272 58.095 47.272H63.048C63.803 47.272 64.417 47.886 64.417 48.641V54.204H56.726V48.641ZM39.483 48.641C39.483 47.886 40.097 47.272 40.852 47.272H45.805C46.56 47.272 47.174 47.886 47.174 48.641V54.204H39.483V48.641ZM70.882 76.572C70.882 78.286 69.487 79.68 67.774 79.68H35.96C35.878 79.68 35.798 79.676 35.719 79.67C34.32 79.564 33.213 78.31 33.198 76.816L33.03 60.089C33.021 59.253 33.335 58.488 33.892 57.992C34.461 57.484 35.196 57.203 35.96 57.203H67.774C69.488 57.203 70.882 58.598 70.882 60.312V76.572Z" fill="#5C5CE0"/>
<path d="M93.637 25.647C93.773 24.98 93.845 24.301 93.852 23.621C93.887 16.151 87.921 10.409 80.185 10.033C70.057 9.54098 66.086 17.868 65.198 21.131C56.106 19.335 49.93 24.307 49.698 32.09H69.284C77.733 32.09 84.607 38.964 84.607 47.412V49.167H94.451C99.179 49.167 105.679 46.248 105.679 37.894C105.679 31.234 98.962 26.436 93.637 25.647Z" fill="#DEDEF9"/>
<path d="M69.284 32.089H34.728C26.279 32.089 19.406 38.963 19.406 47.411V81.967C19.406 90.415 26.28 97.289 34.728 97.289H65.338C66.167 97.289 66.838 96.617 66.838 95.789C66.838 94.961 66.167 94.289 65.338 94.289H34.728C27.934 94.289 22.406 88.762 22.406 81.967V47.411C22.406 40.617 27.934 35.089 34.728 35.089H69.284C76.078 35.089 81.607 40.617 81.607 47.411V58.882C81.607 59.711 82.279 60.382 83.107 60.382C83.935 60.382 84.607 59.711 84.607 58.882V47.411C84.607 38.962 77.733 32.089 69.284 32.089Z" fill="#242424"/>
<path d="M106.637 81.707H84.567V74.62C84.567 71.86 85.764 69.239 87.851 67.429C89.966 65.593 92.687 64.805 95.492 65.204C99.504 65.776 102.699 68.989 103.445 73.2C103.589 74.016 104.366 74.57 105.183 74.415C105.998 74.271 106.542 73.493 106.398 72.677C105.426 67.186 101.213 62.989 95.916 62.235C92.278 61.716 88.627 62.785 85.885 65.163C83.142 67.543 81.568 70.991 81.568 74.621V81.708H80.339C76.108 81.708 72.664 85.151 72.664 89.383V110.861C72.664 115.092 76.107 118.535 80.339 118.535H106.638C110.869 118.535 114.313 115.093 114.313 110.861V89.383C114.313 85.152 110.87 81.708 106.638 81.708L106.637 81.707ZM111.312 110.859C111.312 113.436 109.215 115.533 106.637 115.533H80.338C77.76 115.533 75.663 113.436 75.663 110.859V89.381C75.663 86.803 77.76 84.706 80.338 84.706H106.637C109.215 84.706 111.312 86.803 111.312 89.381V110.859Z" fill="#242424"/>
<path d="M110.914 66.1041C110.105 66.1041 109.325 65.6501 108.949 64.8731L106.894 60.7591C106.821 60.6131 106.701 60.4931 106.555 60.4201L102.429 58.3521C101.693 57.9411 101.266 57.2541 101.224 56.4811C101.221 56.4271 101.221 56.3741 101.224 56.3201C101.266 55.5491 101.692 54.8621 102.365 54.4831L106.555 52.3821C106.7 52.3091 106.821 52.1891 106.893 52.0431L108.956 47.9091C108.972 47.8781 108.988 47.8471 109.006 47.8161C109.193 47.5001 109.459 47.2331 109.776 47.0431C110.163 46.8161 110.578 46.7101 111.021 46.7331C111.761 46.7711 112.429 47.1741 112.808 47.8121C112.827 47.8441 112.844 47.8761 112.861 47.9091L114.924 52.0421C114.997 52.1881 115.117 52.3091 115.263 52.3821L119.389 54.4481C119.412 54.4601 119.436 54.4721 119.458 54.4851C120.127 54.8651 120.55 55.5511 120.592 56.3191C120.595 56.3731 120.595 56.4261 120.592 56.4801C120.551 57.2491 120.128 57.9351 119.46 58.3151L115.264 60.4191C115.116 60.4931 114.998 60.6101 114.925 60.7571L112.862 64.8901C112.66 65.3131 112.297 65.6761 111.851 65.8901C111.549 66.0361 111.23 66.1051 110.913 66.1051L110.914 66.1041ZM110.18 63.5481C110.176 63.5561 110.172 63.5641 110.168 63.5721L110.18 63.5481ZM105.231 56.4011L107.9 57.7381C108.624 58.1001 109.219 58.6971 109.58 59.4201L110.911 62.0861L112.242 59.4191C112.601 58.6981 113.198 58.1001 113.922 57.7381L116.591 56.4021L113.921 55.0651C113.197 54.7021 112.601 54.1041 112.241 53.3811L110.91 50.7161L109.579 53.3831C109.22 54.1051 108.624 54.7021 107.901 55.0651L105.231 56.4011Z" fill="#5C5CE0"/>
</svg>
