<?xml version="1.0" encoding="UTF-8"?>
<svg id="outlined" xmlns="http://www.w3.org/2000/svg" viewBox="0 0 180 120">
  <defs>
    <style>
      .cls-1 {
        fill: #dbdbf6;
      }

      .cls-2 {
        fill: #242424;
      }

      .cls-3 {
        fill: #5c5cdd;
      }
    </style>
  </defs>
  <g id="My_Clients" data-name="My Clients">
    <g>
      <path class="cls-2" d="m66.379,64.842c-.399,0-.798-.158-1.093-.472-3.601-3.828-6.311-8.496-7.835-13.499-.242-.792.205-1.631.997-1.873.788-.239,1.63.205,1.872.998,1.392,4.564,3.864,8.824,7.151,12.318.567.604.538,1.553-.065,2.121-.289.272-.658.407-1.027.407Z"/>
      <g>
        <path class="cls-1" d="m118.581,10.016c-9.583,0-17.38,7.796-17.38,17.379s7.797,17.38,17.38,17.38,17.379-7.796,17.379-17.38-7.796-17.379-17.379-17.379Z"/>
        <g>
          <path class="cls-3" d="m110.675,37.735c-.138,0-.277-.028-.411-.089-.503-.228-.727-.82-.499-1.323,1.591-3.521,5.014-5.795,8.721-5.795s7.13,2.274,8.722,5.793c.228.503.004,1.096-.499,1.323-.504.228-1.096.004-1.323-.499-1.269-2.805-3.978-4.618-6.899-4.618s-5.63,1.813-6.898,4.618c-.167.37-.531.588-.912.588Z"/>
          <path class="cls-3" d="m118.485,28.624c-3.423,0-6.207-2.784-6.207-6.207s2.784-6.207,6.207-6.207,6.207,2.784,6.207,6.207-2.784,6.207-6.207,6.207Zm0-10.413c-2.319,0-4.207,1.887-4.207,4.207s1.888,4.207,4.207,4.207,4.207-1.887,4.207-4.207-1.888-4.207-4.207-4.207Z"/>
        </g>
      </g>
      <g>
        <path class="cls-1" d="m61.419,10.016c-9.583,0-17.379,7.796-17.379,17.379s7.796,17.38,17.379,17.38,17.38-7.796,17.38-17.38-7.797-17.379-17.38-17.379Z"/>
        <g>
          <path class="cls-3" d="m53.513,37.735c-.138,0-.277-.028-.411-.089-.503-.228-.727-.82-.499-1.323,1.591-3.521,5.015-5.795,8.722-5.795s7.129,2.274,8.721,5.793c.228.503.004,1.096-.499,1.323-.504.228-1.096.004-1.323-.499-1.269-2.805-3.977-4.618-6.898-4.618s-5.631,1.813-6.899,4.618c-.167.37-.531.588-.912.588Z"/>
          <path class="cls-3" d="m61.323,28.624c-3.422,0-6.206-2.784-6.206-6.207s2.784-6.207,6.206-6.207,6.207,2.784,6.207,6.207-2.784,6.207-6.207,6.207Zm0-10.413c-2.319,0-4.206,1.887-4.206,4.207s1.887,4.207,4.206,4.207,4.207-1.887,4.207-4.207-1.888-4.207-4.207-4.207Z"/>
        </g>
      </g>
      <path class="cls-2" d="m125.196,95.223c-1.389-1.555-3.782-2.172-6.101-1.578v.004c-.485.13-2.404.745-11.561,3.894-.436-2.219-2.813-3.326-4.87-3.411-4.354-.179-7.441-.255-9.696-.312-4.776-.118-6.386-.158-10.301-.879-.938-.173-2.172-.646-3.6-1.192-3.002-1.151-6.739-2.583-11.115-2.612-2.961-.016-6.144.314-9.38.993-1.95.409-7.438,1.458-7.493,1.469-.813.155-1.347.941-1.191,1.755.156.814.937,1.348,1.756,1.191.226-.043,5.567-1.065,7.544-1.479,3.027-.634,5.956-.941,8.745-.929,3.83.025,7.285,1.349,10.062,2.413,1.566.6,2.919,1.118,4.13,1.341,4.147.764,5.95.809,10.77.928,2.244.056,5.318.132,9.647.31,1.013.042,1.977.511,2.061,1.005.083.476-.998,1.176-2.312,1.498-4.684,1.147-7.254,1.095-10.51,1.023-2.428-.053-5.179-.11-9.291.32-.824.086-1.422.824-1.336,1.648.081.771.732,1.344,1.49,1.344.053,0,.105-.002.158-.008,3.924-.411,6.574-.354,8.914-.304,3.337.072,6.221.133,11.287-1.108,1.193-.292,2.189-.752,2.947-1.329.112-.012.225-.033.336-.071,4.837-1.666,12.725-4.364,13.502-4.582.019-.004.038-.008.057-.013,1.402-.36,2.6.094,3.115.671.213.239.285.454.291.637-2.931,1.961-14.574,8.983-20.847,12.02-2.217,1.073-5.839,2.476-8.75,2.898-1.367.198-2.864.176-4.356-.046-.226-.049-22.635-4.867-28.311-5.905-4.896-.893-9.324.702-9.511.77-.776.286-1.174,1.145-.89,1.922.283.776,1.145,1.177,1.922.895.038-.014,3.87-1.38,7.939-.636,5.63,1.029,27.993,5.838,28.31,5.903,1.018.154,2.01.231,2.969.231.811,0,1.599-.055,2.357-.165,3.247-.471,7.103-1.945,9.627-3.167,6.629-3.208,19.486-10.957,21.755-12.604.236-.171.417-.407.521-.679.534-1.398.239-2.921-.789-4.072Z"/>
      <path class="cls-1" d="m89.392,50.782c-9.583,0-17.379,7.796-17.379,17.38s7.796,17.379,17.379,17.379,17.38-7.796,17.38-17.379-7.797-17.38-17.38-17.38Z"/>
      <g>
        <path class="cls-3" d="m81.485,78.502c-.138,0-.277-.028-.411-.089-.503-.228-.727-.82-.499-1.323,1.591-3.521,5.015-5.795,8.722-5.795s7.13,2.274,8.721,5.794c.228.503.004,1.095-.499,1.323-.504.227-1.097.003-1.323-.5-1.268-2.805-3.976-4.618-6.898-4.618s-5.631,1.813-6.899,4.618c-.167.37-.531.588-.912.588Z"/>
        <path class="cls-3" d="m89.297,69.39c-3.423,0-6.207-2.784-6.207-6.207s2.784-6.207,6.207-6.207,6.206,2.784,6.206,6.207-2.784,6.207-6.206,6.207Zm0-10.413c-2.319,0-4.207,1.887-4.207,4.207s1.888,4.207,4.207,4.207,4.206-1.887,4.206-4.207-1.887-4.207-4.206-4.207Z"/>
      </g>
      <path class="cls-2" d="m103.546,10.743c-.232,0-.468-.054-.688-.168-4.469-2.312-9.306-3.485-14.375-3.485-4.458,0-8.764.917-12.798,2.724-.758.337-1.644,0-1.982-.756s0-1.644.756-1.982c4.423-1.981,9.142-2.986,14.024-2.986,5.476,0,10.923,1.321,15.754,3.821.735.38,1.023,1.286.643,2.021-.267.515-.79.811-1.333.811Z"/>
      <path class="cls-2" d="m112.399,64.842c-.369,0-.738-.135-1.027-.407-.604-.568-.633-1.517-.065-2.121,3.287-3.495,5.76-7.754,7.15-12.317.241-.793,1.077-1.241,1.872-.998.792.242,1.239,1.08.997,1.872-1.523,5.002-4.232,9.67-7.834,13.499-.295.313-.693.472-1.093.472Z"/>
    </g>
  </g>
</svg>