<?xml version="1.0" encoding="UTF-8"?>
<svg id="outlined" xmlns="http://www.w3.org/2000/svg" viewBox="0 0 180 120">
  <defs>
    <style>
      .cls-1 {
        fill: #dbdbf6;
      }

      .cls-2 {
        fill: #242424;
      }

      .cls-3 {
        fill: #5c5cdd;
      }
    </style>
  </defs>
  <g id="Creative_Pro" data-name="Creative Pro">
    <path class="cls-2" d="m106.511,28.707c-.944-2.359-3.184-3.774-5.779-3.774-2.477,0-4.836,1.533-5.779,3.774l-7.902,18.871c-1.061,2.595.826,5.425,3.538,5.425h8.846c2.123,0,3.892-1.769,3.892-3.892s-1.769-3.892-3.892-3.892h-1.533c-.59,0-1.061-.59-.826-1.179l2.831-6.723c.354-.708,1.297-.708,1.651,0l5.661,13.209c.826,1.769,2.241,2.359,3.656,2.359,2.831,0,4.718-2.831,3.538-5.425l-7.902-18.753Z"/>
    <g id="Creative_Pro-2" data-name="Creative Pro">
      <g>
        <path class="cls-2" d="m127.904,39.801c-.828,0-1.5-.671-1.5-1.5v-14.023c0-6.005-4.885-10.891-10.89-10.891h-23.452c-.828,0-1.5-.671-1.5-1.5s.672-1.5,1.5-1.5h23.452c7.659,0,13.89,6.231,13.89,13.891v14.023c0,.829-.672,1.5-1.5,1.5Z"/>
        <path class="cls-2" d="m76.14,62.186c-1.606-1.944-2.491-4.406-2.491-6.933v-17.476c0-.829-.672-1.5-1.5-1.5s-1.5.671-1.5,1.5v17.476c0,3.222,1.129,6.363,3.179,8.844.297.359.726.544,1.157.544.336,0,.675-.113.954-.344.639-.528.729-1.473.201-2.112Z"/>
        <path class="cls-2" d="m110.73,69.143h-5.324c-.828,0-1.5-.671-1.5-1.5s.672-1.5,1.5-1.5h5.324c.828,0,1.5.671,1.5,1.5s-.672,1.5-1.5,1.5Z"/>
        <g>
          <path class="cls-1" d="m57.798,20.479c-.195-.954-.298-1.941-.298-2.952h0c0-8.09,6.558-14.649,14.649-14.649h0c8.09,0,14.649,6.558,14.649,14.649h0c0,6.214-3.869,11.524-9.329,13.653-1.649.643-3.443.996-5.319.996h0c-7.079,0-12.985-5.021-14.351-11.696"/>
          <path class="cls-3" d="m80.411,22.215l-6.763-5.409v-8.068c0-.829-.672-1.5-1.5-1.5s-1.5.671-1.5,1.5v8.789c0,.028.007.053.008.08.003.052.008.102.016.153.008.049.018.096.03.143.012.046.026.091.042.137.017.047.036.092.058.136.021.043.043.084.068.125.026.043.054.084.084.124.028.037.057.072.088.107.037.04.075.078.116.114.019.017.034.037.054.053l7.324,5.86c.277.221.608.329.937.329.44,0,.876-.193,1.172-.563.518-.647.413-1.591-.233-2.108Z"/>
        </g>
        <path class="cls-3" d="m120.929,81.92c-.553,0-1.112-.158-1.622-.483-1.241-.79-1.703-2.281-1.124-3.627l4.19-9.772-5.381-2.268c-1.192-.503-2.072-1.551-2.354-2.803-.284-1.259.048-2.536.909-3.502l14.19-15.929c.989-1.114,2.562-1.333,3.828-.529,1.241.79,1.705,2.281,1.126,3.627l-4.192,9.773,5.381,2.268c1.19.502,2.071,1.548,2.354,2.798.285,1.259-.045,2.536-.906,3.505,0,0,0,0,0,0l-14.189,15.93c-.592.665-1.392,1.011-2.208,1.011Zm10.897-36.216l-14.039,15.756c-.287.323-.263.669-.223.847.07.314.287.568.594.698l6.771,2.854c.367.155.658.451.808.821s.146.785-.012,1.152l-4.679,10.909,14.038-15.757c.288-.324.263-.671.223-.85-.07-.312-.287-.566-.594-.695l-6.771-2.854c-.368-.155-.659-.451-.809-.821s-.145-.785.013-1.152l4.68-10.908Zm4.38,18.277h.01-.01Z"/>
        <path class="cls-2" d="m90.974,75.61c.525-.853,2.378-2.81,4.17-4.703,2.431-2.568,4.944-5.224,5.886-6.902,1.182-2.363.438-4.605-.753-5.688-1.003-.912-2.33-1.075-3.381-.418-.064.04-.125.084-.182.133-1.271,1.09-5.249,4.396-9.182,7.515-1.318,1.179-2.583,2.413-3.806,3.687-1.12-1.18-2.731-1.765-4.35-1.561-.553.058-1.223.409-2.003,1.036-.344-.315-1.666-1.294-4.33-.677-1.119.258-2.343,1.284-3.687,2.826-.126-.109-.269-.203-.434-.266-1.154-.447-2.426-.447-3.58,0-.065.025-.129.055-.189.089-4.098,2.289-7.31,5.748-9.288,10.003-.017.037-.033.075-.047.113-2.613,7.086-5.933,13.945-9.864,20.387-.432.707-.208,1.63.499,2.062.244.149.514.22.78.22.505,0,.999-.255,1.281-.719,4.022-6.59,7.419-13.605,10.097-20.853,1.696-3.619,4.426-6.568,7.902-8.537.296-.099.609-.12.915-.073-.939,1.27-1.931,2.709-2.981,4.258l-.632.929c-.468.684-.292,1.617.392,2.085.259.177.554.262.846.262.479,0,.948-.229,1.239-.653l.639-.939c1.47-2.167,5.374-7.923,6.786-8.272.742-.171,1.202-.128,1.454-.067-1.522,1.732-3.313,4.153-5.375,7.27-.457.691-.268,1.622.424,2.079.255.168.542.249.826.249.486,0,.964-.236,1.252-.672,2.662-4.025,6.236-8.613,7.401-9.157.013-.001.024-.003.037-.004.698-.091,1.387.165,1.854.683.035.039.083.055.121.089-2.148,2.438-4.132,5.021-5.922,7.738-.455.692-.264,1.622.428,2.078.691.456,1.623.265,2.078-.428,3.166-4.807,6.946-9.19,11.169-12.971,3.596-2.848,7.298-5.915,8.858-7.237.066.078.145.199.207.373.104.287.217.888-.149,1.623-.726,1.291-3.326,4.039-5.416,6.246-2.069,2.187-3.856,4.075-4.496,5.118-1.846,2.635-3.411,5.475-4.652,8.441-.021.052-.041.105-.057.16-.506,1.737-.892,3.519-1.166,5.299-.301.492-.304,1.134.046,1.637.473.681,1.409.85,2.088.377,1.139-.791,2.215-1.688,3.202-2.669.597-.597,1.414-1.628,2.361-2.823,1.154-1.458,3.304-4.17,4.076-4.556.659-.33,1.363-.456,1.853-.468-.595,2-2.651,6.836-3.848,9.079-1.276,2.393-8.598,12.58-13.249,15.061-3.822,2.212-7.831,4.19-11.914,5.881-1.352.423-2.583,1.183-3.549,2.185l-4.495,4.495c-.586.585-.586,1.536,0,2.121.293.293.677.439,1.061.439s.768-.146,1.061-.439l4.514-4.514c.647-.671,1.461-1.168,2.353-1.438.047-.014.093-.03.139-.049,4.228-1.747,8.377-3.793,12.289-6.058,5.46-2.911,13.174-13.9,14.438-16.271.052-.097,5.033-9.924,4.232-11.921-.166-.417-.547-.983-1.413-1.312-1.259-.479-3.239-.261-4.814.528-1.271.637-2.839,2.542-5.084,5.375-.578.729-1.125,1.415-1.569,1.938.085-.325.154-.655.247-.977,1.152-2.74,2.603-5.364,4.357-7.873Z"/>
        <path class="cls-1" d="m53.913,13.244h-10.745c-.553,0-1-.448-1-1s.447-1,1-1h10.745c.553,0,1,.448,1,1s-.447,1-1,1Z"/>
        <path class="cls-1" d="m52.74,20.023h-5.787c-.553,0-1-.448-1-1s.447-1,1-1h5.787c.553,0,1,.448,1,1s-.447,1-1,1Z"/>
        <path class="cls-1" d="m55.343,26.802h-2.397c-.553,0-1-.448-1-1s.447-1,1-1h2.397c.553,0,1,.448,1,1s-.447,1-1,1Z"/>
      </g>
    </g>
  </g>
</svg>